<svg width="30" height="30" viewBox="0 0 30 30" fill="none" xmlns="http://www.w3.org/2000/svg">
<path d="M27.903 0.317871H2.18752C0.97223 0.317871 0 1.26511 0 2.44915V27.5509C0 28.6876 0.97223 29.6822 2.18752 29.6822H27.8058C29.0211 29.6822 29.9933 28.735 29.9933 27.5509V2.40179C30.0905 1.26511 29.1183 0.317871 27.903 0.317871ZM8.8959 25.2776H4.47226V11.3058H8.8959V25.2776ZM6.65977 9.36399C5.20143 9.36399 4.08336 8.2273 4.08336 6.85381C4.08336 5.48031 5.25004 4.34363 6.65977 4.34363C8.06951 4.34363 9.23618 5.48031 9.23618 6.85381C9.23618 8.2273 8.16673 9.36399 6.65977 9.36399ZM25.6669 25.2776H21.2432V18.5048C21.2432 16.8945 21.1946 14.7632 18.9099 14.7632C16.5765 14.7632 16.2362 16.563 16.2362 18.3627V25.2776H11.8126V11.3058H16.139V13.2477H16.1876C16.8196 12.111 18.2293 10.9743 20.4168 10.9743C24.9377 10.9743 25.7641 13.816 25.7641 17.6997V25.2776H25.6669Z" fill="#212B36"/>
</svg>
