<svg width="30" height="30" viewBox="0 0 30 30" fill="none" xmlns="http://www.w3.org/2000/svg">
<path d="M11.349 26.2613C9.78889 26.5577 7.97215 26.6516 6.81839 25.3232C6.25027 24.6691 6.01779 23.7672 5.49798 23.0652C5.07925 22.4997 4.47561 22.1544 4.05546 21.5974C6.18995 21.0835 6.67226 23.4768 8.22322 24.3402C8.98466 24.7639 10.6218 24.9313 11.2757 24.2052C11.7392 23.6906 12.0013 22.7416 12.391 22.1305C11.1863 21.8982 9.98111 21.726 8.87444 21.1478C6.19998 19.7504 4.99502 16.1093 5.71736 13.2025C5.9617 12.2192 6.72091 11.4674 6.96271 10.5374C7.10124 10.0046 6.80333 9.35442 6.79256 8.80513C6.77608 7.96475 7.06378 7.22368 7.18128 6.40657C8.09763 6.48117 8.96435 6.76019 9.78613 7.18058C10.2529 7.41937 10.7039 7.81339 11.2188 7.93384C11.6868 8.04332 12.1924 7.83276 12.6515 7.75031C13.4123 7.61365 14.2239 7.52821 14.9958 7.50714C16.2189 7.47375 17.4409 8.00122 18.6426 7.9651C19.583 7.93682 20.5941 6.97365 21.508 6.67687C21.838 6.5697 22.3092 6.37177 22.6438 6.55556C22.9553 6.72667 23.0418 7.15112 23.1144 7.47259C23.2312 7.99007 23.3354 8.54102 23.2737 9.07163C23.2203 9.53054 22.9895 10.0795 23.1046 10.5374C23.2266 11.0221 23.635 11.4344 23.8652 11.87C24.1882 12.4809 24.3784 13.1816 24.4659 13.8687C24.8069 16.5466 23.8754 19.5361 21.508 20.9476C20.3182 21.657 19.0387 21.8082 17.7309 22.1305C18.0152 22.6551 18.3647 23.1436 18.5218 23.7295C18.8416 24.9234 18.6426 26.364 18.6426 27.5938C18.6426 28.24 18.4207 29.4549 19.063 29.8554C19.7432 30.2794 20.7554 29.6635 21.3777 29.3808C23.4573 28.4357 25.3482 26.8805 26.7612 25.062C31.0803 19.5038 31.079 11.2947 26.7612 5.7403C25.5297 4.15612 23.9242 2.76205 22.1592 1.84347C20.1747 0.810623 18.0177 0.116027 15.7773 0.0156536C13.5693 -0.083267 11.3175 0.2862 9.26516 1.13679C1.74411 4.25393 -1.78798 13.1077 0.889539 20.7979C2.06747 24.1811 4.5121 27.0648 7.57201 28.8115C8.3121 29.2341 10.384 30.6014 11.1402 29.6835C11.3971 29.3717 11.3483 28.9057 11.349 28.5266V26.2613Z" fill="#212B36"/>
</svg>
